
<svg width="30" height="30" viewBox="0 0 30 30" fill="none" xmlns="http://www.w3.org/2000/svg">
<path d="M4.375 28.4375H25.625C26.1375 28.4375 26.5625 28.0125 26.5625 27.5C26.5625 26.9875 26.1375 26.5625 25.625 26.5625H4.375C3.8625 26.5625 3.4375 26.9875 3.4375 27.5C3.4375 28.0125 3.8625 28.4375 4.375 28.4375Z" fill="white"/>
<path d="M6.2502 22.8125C6.4877 22.8125 6.72519 22.725 6.91269 22.5375L24.4127 5.03755C24.7752 4.67505 24.7752 4.07505 24.4127 3.71255C24.0502 3.35005 23.4502 3.35005 23.0877 3.71255L5.5877 21.2125C5.2252 21.575 5.2252 22.1751 5.5877 22.5375C5.7752 22.725 6.0127 22.8125 6.2502 22.8125Z" fill="white"/>
<path d="M23.75 18.15C24.2625 18.15 24.6875 17.725 24.6875 17.2125V4.375C24.6875 3.8625 24.2625 3.4375 23.75 3.4375H10.9125C10.4 3.4375 9.975 3.8625 9.975 4.375C9.975 4.8875 10.4 5.3125 10.9125 5.3125H22.8125V17.2125C22.8125 17.725 23.2375 18.15 23.75 18.15Z" fill="white"/>
</svg>
