
<svg width="1440" height="271" viewBox="0 0 1440 271" fill="none" xmlns="http://www.w3.org/2000/svg">
<path d="M159.102 20.1219C145.003 6.77117 125.61 0 101.432 0H0V224.215H36.6814V148.838H101.432C125.546 148.838 144.939 142.067 159.102 128.716C173.327 115.302 180.536 96.9683 180.536 74.419C180.536 51.8697 173.327 33.5365 159.102 20.1219ZM143.855 74.419C143.855 86.8115 140.219 96.5211 133.074 103.356C125.865 110.255 114.637 113.705 99.8371 113.705H36.6814V35.4528H99.8371C114.637 35.4528 125.865 38.9662 133.074 45.8012C140.346 52.7001 143.855 62.0265 143.855 74.419Z" fill="white"/>
<path d="M316.417 51.7449V67.2036C312.27 63.5625 307.677 60.3046 302.701 57.6217C292.366 52.0004 279.863 49.1897 265.701 49.1897C248.987 49.1897 234.187 53.2141 221.619 61.1989C209.116 69.1199 199.291 79.9794 192.402 93.3939C185.576 106.681 182.131 121.692 182.131 137.981C182.131 154.271 185.576 168.963 192.402 182.377C199.291 195.92 209.116 206.843 221.619 214.764C234.187 222.749 249.05 226.773 265.701 226.773C279.863 226.773 292.303 223.963 302.701 218.341C307.677 215.658 312.27 212.464 316.417 208.887V224.218H353.098V51.7449H316.417ZM317.692 137.981C317.692 147.819 315.715 157.081 311.887 165.513C308.123 173.69 302.637 180.269 295.428 185.124C288.347 189.915 279.416 192.342 268.826 192.342C258.237 192.342 249.433 189.915 241.969 185.06C234.505 180.205 228.7 173.626 224.809 165.449C220.79 157.145 218.748 147.883 218.748 138.045C218.748 128.208 220.79 118.754 224.809 110.514C228.764 102.465 234.505 95.8852 242.033 91.0304C249.433 86.2395 258.492 83.7482 268.89 83.7482C279.289 83.7482 288.411 86.1756 295.428 90.9665C302.637 95.8213 308.123 102.401 311.887 110.386C315.715 118.626 317.692 127.952 317.692 138.045V137.981Z" fill="white"/>
<path d="M858.601 93.3939C851.711 79.9155 841.759 69.1199 829 61.1989C816.242 53.2141 800.867 49.1897 783.388 49.1897C765.908 49.1897 750.789 53.2141 737.967 61.1351C725.144 69.0561 715.129 79.9155 708.175 93.3301C701.349 106.617 697.904 121.628 697.904 137.918C697.904 154.207 701.349 168.963 708.175 182.313C715.065 195.856 725.08 206.779 737.967 214.7C750.853 222.621 766.164 226.645 783.388 226.645C800.612 226.645 816.242 222.621 829 214.636C841.759 206.715 851.711 195.792 858.601 182.25C865.427 168.835 868.871 153.887 868.871 137.854C868.871 121.82 865.427 106.553 858.601 93.2662V93.3939ZM832.19 137.981C832.19 147.819 830.212 157.081 826.385 165.513C822.621 173.69 817.135 180.269 809.926 185.124C802.845 189.915 793.914 192.342 783.324 192.342C772.734 192.342 764.058 189.915 756.913 185.124C749.641 180.269 744.091 173.69 740.327 165.577C736.499 157.209 734.522 147.947 734.522 138.045C734.522 128.144 736.436 118.626 740.327 110.386C744.027 102.337 749.641 95.8213 756.913 90.9665C764.122 86.1756 772.989 83.7482 783.324 83.7482C793.659 83.7482 802.845 86.1756 809.926 90.9665C817.071 95.8213 822.621 102.401 826.385 110.386C830.212 118.626 832.19 127.952 832.19 138.045V137.981Z" fill="white"/>
<path d="M1027.9 83.4924C1021.27 72.1858 1012.53 63.5622 1001.81 57.8131C991.222 52.1278 979.739 49.2533 967.682 49.2533C953.52 49.2533 941.655 52.2556 932.341 58.2602C928.385 60.8154 924.622 63.6899 921.113 66.7561V51.8085H884.432V224.282H921.113V125.908C921.113 117.54 923.027 110.066 926.727 103.806C930.491 97.4819 935.53 92.4993 941.718 89.0499C947.97 85.5365 955.051 83.8118 962.834 83.8118C974.253 83.8118 983.312 87.5168 990.393 95.0545C997.474 102.592 1001.11 112.941 1001.11 125.653V224.346H1037.79V125.014C1037.79 108.788 1034.41 94.8629 1027.84 83.6202L1027.9 83.4924Z" fill="white"/>
<path d="M532.929 93.3939C526.039 79.9794 516.215 69.1199 503.711 61.1989C491.144 53.2141 476.28 49.1897 459.63 49.1897C445.468 49.1897 433.028 51.9365 422.693 57.4301C417.654 60.113 413.06 63.2431 408.914 66.8842V51.7449H372.232V272H408.914V208.632C413.06 212.273 417.59 215.467 422.566 218.213C432.9 223.963 445.404 226.837 459.63 226.837C476.28 226.837 491.144 222.813 503.711 214.828C516.215 206.907 526.039 195.984 532.929 182.441C539.755 169.027 543.2 154.079 543.2 138.045C543.2 122.012 539.755 106.745 532.929 93.4578V93.3939ZM506.518 137.981C506.518 147.819 504.477 157.017 500.458 165.386C496.503 173.562 490.761 180.142 483.361 185.06C476.089 189.851 467.03 192.279 456.44 192.279C445.85 192.279 437.174 189.851 429.966 185.06C422.693 180.205 417.143 173.626 413.379 165.513C409.552 157.145 407.574 147.883 407.574 137.981C407.574 128.08 409.552 118.562 413.379 110.322C417.143 102.273 422.693 95.7575 429.966 90.9027C437.174 86.1117 446.042 83.6843 456.44 83.6843C466.839 83.6843 476.089 86.1117 483.361 90.9665C490.761 95.8213 496.503 102.401 500.458 110.45C504.477 118.69 506.518 127.952 506.518 137.981Z" fill="white"/>
<path d="M668.36 51.7454L620.451 171.71L573.371 51.7454H532.99L600.675 215.531L575.604 272H615.22L708.486 51.7454H668.36Z" fill="white"/>
<path d="M1369.88 228.599C1346.51 228.599 1322.34 213.439 1330.84 173.811L1352.88 70.6176C1355.27 54.3938 1354.74 40.0319 1347.3 31.2551V30.7232L1389.27 17.425L1360.58 148.013C1373.07 114.767 1389.8 93.7563 1412.11 93.7563C1430.17 93.7563 1440 106.788 1440 135.512C1440 183.12 1411.05 228.599 1369.88 228.599ZM1371.47 223.812C1398.03 223.812 1415.03 172.747 1415.03 134.98C1415.03 114.767 1410.25 108.384 1400.96 108.384C1390.6 108.384 1377.05 117.427 1357.13 169.556L1355.27 178.598C1348.1 211.312 1358.46 223.812 1371.47 223.812Z" fill="white"/>
<path d="M1278.02 173.279C1265.27 202.801 1248.01 228.599 1227.55 228.599C1211.88 228.599 1201.79 214.237 1201.79 190.035C1201.79 146.417 1235.26 93.7565 1284.93 93.7565C1294.49 93.7565 1302.72 95.0863 1309.36 98.0119L1319.72 93.7565H1321.58L1297.41 187.375C1291.83 207.854 1291.3 215.833 1305.64 221.418V221.95L1264.21 227.004L1278.02 173.279ZM1240.57 209.184C1256.51 209.184 1271.65 175.939 1283.07 148.013L1293.96 107.321C1291.57 101.735 1286.79 99.8736 1280.41 99.8736C1250.13 99.8736 1228.62 152.002 1228.62 185.779C1228.62 207.056 1236.59 209.184 1240.57 209.184Z" fill="white"/>
<path d="M1068.19 224.61V224.078C1077.48 208.12 1080.41 201.205 1084.66 178.332L1102.98 76.2027C1106.44 54.9257 1106.97 45.8829 1102.72 30.4571V29.9252H1148.67V30.4571C1138.04 45.8829 1135.92 54.9257 1131.67 76.2027L1105.9 220.886L1134.86 219.557C1153.45 218.759 1173.1 193.492 1189.3 171.683L1191.96 172.747L1172.84 224.61H1068.19Z" fill="white"/>
</svg>
