
<svg width="201" height="30" viewBox="0 0 201 30" fill="none" xmlns="http://www.w3.org/2000/svg">
<path d="M4.9642 0.0529234L21.66 6.21991L20.6827 10.6076C20.6224 10.8753 20.3944 11.0695 20.1196 11.0828L0 12.0197L1.05019 3.5148C1.07346 3.32637 1.15912 3.1511 1.29358 3.01685L4.06521 0.249445C4.30073 0.0142832 4.65181 -0.062464 4.9642 0.0529234Z" fill="white"/>
<path d="M38.959 0.0529234L22.2632 6.21991L23.2404 10.6076C23.3008 10.8753 23.5287 11.0695 23.8036 11.0828L43.9231 12.0197L42.873 3.5148C42.8497 3.32637 42.764 3.1511 42.6296 3.01685L39.8579 0.249445C39.6224 0.0142832 39.2713 -0.062464 38.959 0.0529234Z" fill="white"/>
<path d="M21.66 18.6461L4.9642 24.8131C4.65181 24.9285 4.30073 24.8517 4.06521 24.6166L1.29358 21.8492C1.15912 21.7149 1.07346 21.5396 1.05019 21.3512L0 12.8463L20.1196 13.7832C20.3944 13.7966 20.6224 13.9907 20.6827 14.2585L21.66 18.6461Z" fill="white"/>
<path d="M38.959 24.8131L22.2632 18.6461L23.2404 14.2585C23.3008 13.9907 23.5287 13.7966 23.8036 13.7832L43.9231 12.8463L42.873 21.3512C42.8497 21.5396 42.764 21.7149 42.6296 21.8492L39.8579 24.6166C39.6224 24.8517 39.2713 24.9285 38.959 24.8131Z" fill="white"/>
<path d="M65.4572 3.42274C63.9653 2.01403 61.9132 1.29956 59.3547 1.29956H48.6213V24.9579H52.5029V17.0044H59.3547C61.9064 17.0044 63.9586 16.2899 65.4572 14.8812C66.9626 13.4657 67.7254 11.5313 67.7254 9.15196C67.7254 6.77265 66.9626 4.83819 65.4572 3.42274ZM63.8438 9.15196C63.8438 10.4596 63.459 11.4841 62.703 12.2053C61.9402 12.9332 60.7521 13.2972 59.1859 13.2972H52.5029V5.0404H59.1859C60.7521 5.0404 61.9402 5.41112 62.703 6.13232C63.4726 6.86027 63.8438 7.84435 63.8438 9.15196Z" fill="white"/>
<path d="M82.1039 6.75936V8.3905C81.6652 8.0063 81.1791 7.66255 80.6526 7.37946C79.559 6.78632 78.2359 6.48975 76.7373 6.48975C74.9686 6.48975 73.4025 6.91438 72.0726 7.75691C70.7495 8.59271 69.7099 9.73855 68.9809 11.154C68.2586 12.556 67.894 14.1399 67.894 15.8587C67.894 17.5775 68.2586 19.1277 68.9809 20.5432C69.7099 21.9721 70.7495 23.1247 72.0726 23.9605C73.4025 24.803 74.9754 25.2277 76.7373 25.2277C78.2359 25.2277 79.5522 24.9311 80.6526 24.3379C81.1791 24.0549 81.6652 23.7178 82.1039 23.3404V24.958H85.9855V6.75936H82.1039ZM82.239 15.8587C82.239 16.8967 82.0297 17.874 81.6247 18.7638C81.2264 19.6265 80.6458 20.3207 79.883 20.833C79.1337 21.3385 78.1886 21.5947 77.068 21.5947C75.9474 21.5947 75.0159 21.3385 74.2261 20.8263C73.4362 20.314 72.8219 19.6198 72.4102 18.757C71.9849 17.8808 71.7689 16.9034 71.7689 15.8654C71.7689 14.8274 71.9849 13.8299 72.4102 12.9604C72.8287 12.1111 73.4362 11.4169 74.2328 10.9046C75.0159 10.3991 75.9745 10.1362 77.0748 10.1362C78.1751 10.1362 79.1405 10.3924 79.883 10.8979C80.6458 11.4101 81.2264 12.1044 81.6247 12.9469C82.0297 13.8164 82.239 14.8005 82.239 15.8654V15.8587Z" fill="white"/>
<path d="M139.477 11.154C138.748 9.73181 137.695 8.59271 136.345 7.75691C134.995 6.91438 133.368 6.48975 131.518 6.48975C129.668 6.48975 128.069 6.91438 126.712 7.75017C125.355 8.58597 124.295 9.73181 123.559 11.1473C122.837 12.5492 122.472 14.1332 122.472 15.852C122.472 17.5707 122.837 19.1277 123.559 20.5364C124.288 21.9654 125.348 23.118 126.712 23.9537C128.075 24.7895 129.696 25.2142 131.518 25.2142C133.341 25.2142 134.995 24.7895 136.345 23.947C137.695 23.1112 138.748 21.9586 139.477 20.5297C140.199 19.1142 140.564 17.537 140.564 15.8452C140.564 14.1534 140.199 12.5425 139.477 11.1405V11.154ZM136.682 15.8587C136.682 16.8967 136.473 17.874 136.068 18.7637C135.67 19.6265 135.089 20.3207 134.326 20.833C133.577 21.3385 132.632 21.5947 131.511 21.5947C130.391 21.5947 129.473 21.3385 128.717 20.833C127.947 20.3207 127.36 19.6265 126.962 18.7705C126.556 17.8875 126.347 16.9102 126.347 15.8654C126.347 14.8207 126.55 13.8164 126.962 12.9469C127.353 12.0976 127.947 11.4101 128.717 10.8979C129.479 10.3924 130.418 10.1362 131.511 10.1362C132.605 10.1362 133.577 10.3924 134.326 10.8979C135.082 11.4101 135.67 12.1044 136.068 12.9469C136.473 13.8164 136.682 14.8005 136.682 15.8654V15.8587Z" fill="white"/>
<path d="M157.392 10.1094C156.69 8.91633 155.766 8.0064 154.631 7.39978C153.511 6.79989 152.296 6.49658 151.02 6.49658C149.521 6.49658 148.266 6.81337 147.28 7.44696C146.862 7.71657 146.463 8.01988 146.092 8.34341V6.76619H142.21V24.9649H146.092V14.5849C146.092 13.7019 146.295 12.9133 146.686 12.2528C147.084 11.5855 147.618 11.0597 148.272 10.6958C148.934 10.325 149.683 10.1431 150.507 10.1431C151.715 10.1431 152.674 10.534 153.423 11.3293C154.172 12.1247 154.557 13.2166 154.557 14.5579V24.9716H158.439V14.4905C158.439 12.7785 158.081 11.3091 157.386 10.1228L157.392 10.1094Z" fill="white"/>
<path d="M105.015 11.154C104.286 9.73855 103.246 8.59271 101.923 7.75691C100.593 6.91438 99.0204 6.48975 97.2585 6.48975C95.7599 6.48975 94.4435 6.77958 93.3499 7.35924C92.8166 7.64233 92.3306 7.9726 91.8918 8.3568V6.75936H88.0103V29.9998H91.8918V23.3134C92.3306 23.6976 92.8099 24.0346 93.3364 24.3245C94.43 24.9311 95.7531 25.2344 97.2585 25.2344C99.0204 25.2344 100.593 24.8098 101.923 23.9672C103.246 23.1314 104.286 21.9789 105.015 20.5499C105.737 19.1345 106.102 17.5572 106.102 15.8654C106.102 14.1736 105.737 12.5627 105.015 11.1607V11.154ZM102.22 15.8587C102.22 16.8967 102.004 17.8673 101.579 18.7503C101.16 19.613 100.553 20.3073 99.7697 20.8263C99.0001 21.3318 98.0416 21.5879 96.921 21.5879C95.8004 21.5879 94.8823 21.3318 94.1195 20.8263C93.3499 20.314 92.7626 19.6198 92.3644 18.7638C91.9593 17.8808 91.7501 16.9034 91.7501 15.8587C91.7501 14.814 91.9593 13.8097 92.3644 12.9402C92.7626 12.0909 93.3499 11.4034 94.1195 10.8911C94.8823 10.3856 95.8206 10.1295 96.921 10.1295C98.0213 10.1295 99.0001 10.3856 99.7697 10.8979C100.553 11.4101 101.16 12.1044 101.579 12.9537C102.004 13.8231 102.22 14.8005 102.22 15.8587Z" fill="white"/>
<path d="M119.346 6.75952L114.276 19.4177L109.295 6.75952H105.021L112.184 24.0415L109.531 29.9999H113.723L123.592 6.75952H119.346Z" fill="white"/>
<path d="M193.58 25.4205C191.106 25.4205 188.549 23.8208 189.448 19.6394L191.781 8.75085C192.034 7.03898 191.978 5.52357 191.191 4.59748V4.54135L195.631 3.13818L192.596 16.9173C193.917 13.4094 195.688 11.1924 198.049 11.1924C199.96 11.1924 201 12.5675 201 15.5983C201 20.6216 197.936 25.4205 193.58 25.4205ZM193.748 24.9153C196.559 24.9153 198.358 19.5272 198.358 15.5422C198.358 13.4094 197.852 12.7358 196.868 12.7358C195.772 12.7358 194.339 13.69 192.231 19.1904L192.034 20.1446C191.275 23.5963 192.371 24.9153 193.748 24.9153Z" fill="white"/>
<path d="M183.859 19.5833C182.51 22.6983 180.683 25.4205 178.519 25.4205C176.861 25.4205 175.793 23.9051 175.793 21.3513C175.793 16.7489 179.334 11.1924 184.59 11.1924C185.602 11.1924 186.473 11.3327 187.176 11.6414L188.272 11.1924H188.469L185.911 21.0707C185.321 23.2315 185.265 24.0734 186.782 24.6628V24.7189L182.398 25.2521L183.859 19.5833ZM179.896 23.3719C181.583 23.3719 183.185 19.8639 184.393 16.9173L185.546 12.6236C185.293 12.0343 184.787 11.8378 184.112 11.8378C180.908 11.8378 178.632 17.3382 178.632 20.9023C178.632 23.1474 179.475 23.3719 179.896 23.3719Z" fill="white"/>
<path d="M161.655 24.9994V24.9433C162.639 23.2595 162.948 22.5298 163.398 20.1164L165.337 9.34005C165.703 7.09498 165.759 6.14083 165.309 4.51316V4.45703H170.171V4.51316C169.047 6.14083 168.822 7.09498 168.373 9.34005L165.646 24.6065L168.71 24.4662C170.677 24.382 172.757 21.716 174.472 19.4148L174.753 19.527L172.729 24.9994H161.655Z" fill="white"/>
</svg>
