
<svg width="36" height="20" viewBox="0 0 36 20" fill="none" xmlns="http://www.w3.org/2000/svg">
<path d="M3.99276 0.0425669L17.4214 5.00274L16.6353 8.53178C16.5868 8.74714 16.4035 8.90328 16.1824 8.91405L0 9.66759L0.844678 2.82699C0.863392 2.67543 0.932296 2.53446 1.04044 2.42648L3.26969 0.200631C3.45912 0.0114882 3.7415 -0.0502404 3.99276 0.0425669Z" fill="white"/>
<path d="M31.3351 0.0425669L17.9065 5.00274L18.6925 8.53178C18.7411 8.74714 18.9244 8.90328 19.1455 8.91405L35.3279 9.66759L34.4832 2.82699C34.4645 2.67543 34.3956 2.53446 34.2874 2.42648L32.0582 0.200631C31.8687 0.0114882 31.5864 -0.0502404 31.3351 0.0425669Z" fill="white"/>
<path d="M17.4214 14.9973L3.99276 19.9574C3.7415 20.0502 3.45912 19.9885 3.26969 19.7994L1.04044 17.5735C0.932296 17.4655 0.863392 17.3246 0.844678 17.173L0 10.3324L16.1824 11.086C16.4035 11.0967 16.5868 11.2529 16.6353 11.4682L17.4214 14.9973Z" fill="white"/>
<path d="M31.3351 19.9574L17.9065 14.9973L18.6925 11.4682C18.7411 11.2529 18.9244 11.0967 19.1455 11.086L35.3279 10.3324L34.4832 17.173C34.4645 17.3246 34.3956 17.4655 34.2874 17.5735L32.0582 19.7994C31.8687 19.9885 31.5864 20.0502 31.3351 19.9574Z" fill="white"/>
</svg>
