
<svg width="130" height="130" viewBox="0 0 130 130" fill="none" xmlns="http://www.w3.org/2000/svg">
<mask id="path-1-outside-1_201_463" maskUnits="userSpaceOnUse" x="0" y="0" width="130" height="130" fill="black">
<rect fill="white" width="130" height="130"/>
<path d="M125 65C125 98.1371 98.1371 125 65 125C31.8629 125 5 98.1371 5 65C5 31.8629 31.8629 5 65 5C98.1371 5 125 31.8629 125 65ZM8.6 65C8.6 96.1489 33.8511 121.4 65 121.4C96.1489 121.4 121.4 96.1489 121.4 65C121.4 33.8511 96.1489 8.6 65 8.6C33.8511 8.6 8.6 33.8511 8.6 65Z"/>
</mask>
<path d="M125 65C125 98.1371 98.1371 125 65 125C31.8629 125 5 98.1371 5 65C5 31.8629 31.8629 5 65 5C98.1371 5 125 31.8629 125 65ZM8.6 65C8.6 96.1489 33.8511 121.4 65 121.4C96.1489 121.4 121.4 96.1489 121.4 65C121.4 33.8511 96.1489 8.6 65 8.6C33.8511 8.6 8.6 33.8511 8.6 65Z" fill="white"/>
<path d="M125 65C125 98.1371 98.1371 125 65 125C31.8629 125 5 98.1371 5 65C5 31.8629 31.8629 5 65 5C98.1371 5 125 31.8629 125 65ZM8.6 65C8.6 96.1489 33.8511 121.4 65 121.4C96.1489 121.4 121.4 96.1489 121.4 65C121.4 33.8511 96.1489 8.6 65 8.6C33.8511 8.6 8.6 33.8511 8.6 65Z" stroke="#1E1E21" stroke-width="10" mask="url(#path-1-outside-1_201_463)"/>
</svg>
