
<svg width="120" height="120" viewBox="0 0 120 120" fill="none" xmlns="http://www.w3.org/2000/svg">
<path d="M120 60C120 93.1371 93.1371 120 60 120C26.8629 120 0 93.1371 0 60C0 26.8629 26.8629 0 60 0C93.1371 0 120 26.8629 120 60ZM12 60C12 86.5097 33.4903 108 60 108C86.5097 108 108 86.5097 108 60C108 33.4903 86.5097 12 60 12C33.4903 12 12 33.4903 12 60Z" fill="white"/>
<path d="M120 60C120 93.1371 93.1371 120 60 120C26.8629 120 0 93.1371 0 60C0 26.8629 26.8629 0 60 0C93.1371 0 120 26.8629 120 60ZM12 60C12 86.5097 33.4903 108 60 108C86.5097 108 108 86.5097 108 60C108 33.4903 86.5097 12 60 12C33.4903 12 12 33.4903 12 60Z" fill="url(#paint0_linear_201_462)"/>
<defs>
<linearGradient id="paint0_linear_201_462" x1="2.07256e-07" y1="120" x2="120" y2="2.07256e-07" gradientUnits="userSpaceOnUse">
<stop stop-color="#FBCD47"/>
<stop offset="1" stop-color="#F591CF"/>
<stop offset="1" stop-color="#F591CF"/>
</linearGradient>
</defs>
</svg>
